<svg id="Layer_1" data-name="Layer 1" xmlns="http://www.w3.org/2000/svg" viewBox="0 0 44 37.66"><defs><style>.cls-1{fill:#fff;}.cls-2{fill:#6f6f6f;}</style></defs><title>BNKL</title><g id="Group_14" data-name="Group 14"><ellipse id="Ellipse_1" data-name="Ellipse 1" class="cls-1" cx="22" cy="18.83" rx="22" ry="18.83"/><g id="binoculars"><path class="cls-2" d="M29.48,21.29a1.92,1.92,0,0,0-1.92,1.92.46.46,0,0,0,.92,0,1,1,0,0,1,1-1,.46.46,0,0,0,0-.92Z" transform="translate(-2 -5)"/><path class="cls-2" d="M32.62,20a2.67,2.67,0,0,0-.36-.31h0l-1.7-1.45a4.47,4.47,0,0,0-2.28-.82l.09.09-1-1h0a1.6,1.6,0,0,0-2.28.1,1.54,1.54,0,0,0-.35.59,1.61,1.61,0,0,0-.71-.23h-.13a1.52,1.52,0,0,0-.8.23,1.61,1.61,0,0,0-2-1,1.52,1.52,0,0,0-.59.34h0l-1,1,.1-.1a4.57,4.57,0,0,0-2.29.82l-1.7,1.45h0a2.67,2.67,0,0,0-.36.31,4.52,4.52,0,1,0,7.62,3.8,2.26,2.26,0,0,0,2.25,0,4.52,4.52,0,0,0,9-.56A4.46,4.46,0,0,0,32.62,20ZM18.26,26.3a3.09,3.09,0,1,1,3.08-3.08h0a3.07,3.07,0,0,1-3.07,3.08Zm5.61-3.51a1,1,0,1,1,1-1h0a1,1,0,0,1-1,1h0Zm5.61,3.51a3.09,3.09,0,1,1,3.08-3.08h0a3.07,3.07,0,0,1-3.07,3.08Z" transform="translate(-2 -5)"/><path class="cls-2" d="M18.26,21.29a1.92,1.92,0,0,0-1.92,1.92.46.46,0,0,0,.92,0v0a1,1,0,0,1,1-1,.46.46,0,0,0,0-.92Z" transform="translate(-2 -5)"/></g></g></svg>