<svg xmlns="http://www.w3.org/2000/svg" width="89.92" height="80" viewBox="0 0 89.92 80">
  <g id="Group_41" data-name="Group 41" transform="translate(-63 -124)">
    <path id="heart" d="M44.96,80a5.273,5.273,0,0,1-3.476-1.306c-3.633-3.176-7.135-6.161-10.225-8.794l-.016-.014C22.184,62.166,14.362,55.5,8.919,48.931,2.834,41.59,0,34.628,0,27.024A28.1,28.1,0,0,1,7.133,7.829,24.18,24.18,0,0,1,25.12,0,22.618,22.618,0,0,1,39.248,4.877a28.906,28.906,0,0,1,5.712,5.964,28.909,28.909,0,0,1,5.713-5.964A22.618,22.618,0,0,1,64.8,0,24.181,24.181,0,0,1,82.787,7.829,28.1,28.1,0,0,1,89.92,27.024c0,7.6-2.833,14.566-8.918,21.907C75.559,55.5,67.737,62.165,58.679,69.884c-3.1,2.637-6.6,5.627-10.244,8.811A5.277,5.277,0,0,1,44.96,80ZM25.12,5.268A18.97,18.97,0,0,0,11.005,11.4,22.862,22.862,0,0,0,5.267,27.024c0,6.4,2.377,12.116,7.707,18.547,5.151,6.216,12.814,12.746,21.686,20.307l.016.014c3.1,2.643,6.617,5.64,10.277,8.84,3.681-3.206,7.2-6.207,10.31-8.855C64.134,58.315,71.8,51.787,76.947,45.571c5.329-6.431,7.706-12.151,7.706-18.547A22.862,22.862,0,0,0,78.915,11.4,18.969,18.969,0,0,0,64.8,5.268,17.469,17.469,0,0,0,53.894,9.044a25.56,25.56,0,0,0-6.078,7.033,3.325,3.325,0,0,1-5.712,0,25.536,25.536,0,0,0-6.078-7.033A17.469,17.469,0,0,0,25.12,5.268Zm0,0" transform="translate(63 124)" fill="#fff"/>
  </g>
</svg>
