<?xml version="1.0" encoding="utf-8"?>
<!-- Generator: Adobe Illustrator 23.0.3, SVG Export Plug-In . SVG Version: 6.00 Build 0)  -->
<svg version="1.1" id="Layer_1" xmlns="http://www.w3.org/2000/svg" xmlns:xlink="http://www.w3.org/1999/xlink" x="0px" y="0px"
	 viewBox="0 0 144 144" style="enable-background:new 0 0 144 144;" xml:space="preserve">
<style type="text/css">
	.st0{fill:#7B4AA8;}
	.st1{fill:#FFFFFF;}
</style>
<g>
	<path id="Rectangle_3-2" class="st0" d="M72,4L72,4c37.56,0,68,30.44,68,68l0,0c0,37.56-30.44,68-68,68l0,0
		c-37.56,0-68-30.44-68-68l0,0C4,34.44,34.44,4,72,4z"/>
	<path id="smile-regular" class="st1" d="M87.15,67.57c-3.39,0-6.15-2.74-6.15-6.13c0-3.39,2.74-6.15,6.13-6.15
		c3.39,0,6.15,2.74,6.15,6.13c0,0,0,0.01,0,0.01C93.28,64.82,90.54,67.57,87.15,67.57C87.15,67.57,87.15,67.57,87.15,67.57z
		 M56.44,67.57c-3.39,0-6.14-2.75-6.14-6.14c0-3.39,2.75-6.14,6.14-6.14c3.39,0,6.14,2.75,6.14,6.14l0,0c0,3.39-2.74,6.14-6.13,6.14
		C56.45,67.57,56.44,67.57,56.44,67.57z M55.67,81.5c7.4,8.9,20.62,10.12,29.53,2.72c0.99-0.82,1.9-1.73,2.72-2.72
		c1.72-1.87,4.64-2,6.51-0.28c1.75,1.6,1.99,4.27,0.56,6.17c-10.69,12.82-29.74,14.54-42.56,3.85c-1.4-1.16-2.69-2.45-3.85-3.85
		c-1.53-2.03-1.13-4.92,0.9-6.45c1.89-1.43,4.56-1.19,6.17,0.56H55.67z"/>
</g>
</svg>
