<?xml version="1.0" encoding="utf-8"?>
<!-- Generator: Adobe Illustrator 16.0.0, SVG Export Plug-In . SVG Version: 6.00 Build 0)  -->
<!DOCTYPE svg PUBLIC "-//W3C//DTD SVG 1.1//EN" "http://www.w3.org/Graphics/SVG/1.1/DTD/svg11.dtd">
<svg version="1.1" id="Layer_1" xmlns="http://www.w3.org/2000/svg" xmlns:xlink="http://www.w3.org/1999/xlink" x="0px" y="0px"
	 width="600px" height="600px" viewBox="0 0 600 600" enable-background="new 0 0 600 600" xml:space="preserve">
<path fill="#FFFFFF" d="M235.167,281.542h0.042c14.125,0,25.542-11.458,25.542-25.583s-11.458-25.583-25.583-25.583
	s-25.583,11.458-25.583,25.583S221.042,281.542,235.167,281.542z M363.125,281.542c14.125,0,25.542-11.458,25.542-25.583v-0.042
	c0-14.125-11.5-25.542-25.625-25.542S337.5,241.875,337.5,256S349,281.542,363.125,281.542z M366.333,339.584
	c-3.416,4.125-7.208,7.916-11.333,11.332c-37.125,30.834-92.208,25.75-123.042-11.332h-0.083
	c-6.708-7.293-17.833-8.293-25.708-2.334c-8.458,6.375-10.125,18.416-3.75,26.875c4.833,5.834,10.208,11.209,16.042,16.041
	c53.417,44.542,132.792,37.376,177.333-16.041c5.958-7.916,4.958-19.041-2.334-25.709C385.667,331.25,373.5,331.791,366.333,339.584
	z M300,16.667C143.5,16.667,16.667,143.5,16.667,300S143.5,583.333,300,583.333S583.333,456.5,583.333,300S456.5,16.667,300,16.667z
	 M477.02,477.02c-22.999,22.999-49.773,41.052-79.579,53.656c-30.842,13.044-63.625,19.657-97.44,19.657
	c-33.815,0-66.599-6.613-97.44-19.657c-29.806-12.604-56.58-30.657-79.58-53.656c-22.999-22.999-41.051-49.773-53.657-79.579
	C56.28,366.599,49.667,333.815,49.667,300c0-33.815,6.614-66.599,19.657-97.44c12.605-29.806,30.658-56.58,53.657-79.579
	s49.773-41.052,79.579-53.657C233.401,56.28,266.185,49.667,300,49.667c33.815,0,66.599,6.614,97.44,19.657
	c29.806,12.605,56.58,30.658,79.579,53.657s41.052,49.773,53.656,79.579c13.044,30.842,19.657,63.625,19.657,97.44
	c0,33.815-6.613,66.599-19.657,97.44C518.071,427.246,500.019,454.021,477.02,477.02z"/>
</svg>
