<?xml version="1.0" encoding="utf-8"?>
<!-- Generator: Adobe Illustrator 23.0.3, SVG Export Plug-In . SVG Version: 6.00 Build 0)  -->
<svg version="1.1" id="Layer_1" xmlns="http://www.w3.org/2000/svg" xmlns:xlink="http://www.w3.org/1999/xlink" x="0px" y="0px"
	 viewBox="0 0 144 144" style="enable-background:new 0 0 144 144;" xml:space="preserve">
<style type="text/css">
	.st0{fill:#9D70C7;}
	.st1{fill:#FFFFFF;}
</style>
<g>
	<path id="Rectangle_1-2" class="st0" d="M72,4L72,4c37.56,0,68,30.44,68,68l0,0c0,37.56-30.44,68-68,68l0,0
		c-37.56,0-68-30.44-68-68l0,0C4,34.44,34.44,4,72,4z"/>
	<path id="meh-regular" class="st1" d="M87.09,67.57c-3.39,0-6.15-2.74-6.15-6.13c0-3.39,2.74-6.15,6.13-6.15
		c3.39,0,6.15,2.74,6.15,6.13c0,0,0,0.01,0,0.01C93.23,64.82,90.48,67.57,87.09,67.57C87.09,67.57,87.09,67.57,87.09,67.57z
		 M56.38,55.29c3.39,0,6.15,2.74,6.15,6.13c0,3.39-2.74,6.15-6.13,6.15c-3.39,0-6.15-2.74-6.15-6.13c0,0,0-0.01,0-0.01
		C50.25,58.04,52.99,55.29,56.38,55.29C56.38,55.29,56.38,55.29,56.38,55.29z M54.84,82.92h33.78c2.54-0.06,4.66,1.95,4.72,4.49
		c0.06,2.54-1.95,4.66-4.49,4.72c-0.07,0-0.15,0-0.22,0H54.84c-2.54,0.06-4.66-1.95-4.72-4.49c-0.06-2.54,1.95-4.66,4.49-4.72
		C54.7,82.92,54.77,82.92,54.84,82.92z"/>
</g>
</svg>
