<?xml version="1.0" encoding="utf-8"?>
<!-- Generator: Adobe Illustrator 16.0.0, SVG Export Plug-In . SVG Version: 6.00 Build 0)  -->
<!DOCTYPE svg PUBLIC "-//W3C//DTD SVG 1.1//EN" "http://www.w3.org/Graphics/SVG/1.1/DTD/svg11.dtd">
<svg version="1.1" id="Layer_1" xmlns="http://www.w3.org/2000/svg" xmlns:xlink="http://www.w3.org/1999/xlink" x="0px" y="0px"
	 width="600px" height="600px" viewBox="0 0 600 600" enable-background="new 0 0 600 600" xml:space="preserve">
<path fill="#FFFFFF" d="M235,281.542c14.125,0,25.542-11.5,25.542-25.625s-11.5-25.542-25.625-25.542s-25.542,11.458-25.542,25.583
	V256C209.375,270.125,220.875,281.542,235,281.542z M362.875,281.542c14.125,0,25.583-11.458,25.542-25.583v-0.042
	c0-14.125-11.5-25.542-25.625-25.542S337.25,241.875,337.25,256S348.75,281.542,362.875,281.542z M369.25,345.5H227.542
	c-10.583,0.25-18.958,9.084-18.708,19.666c0.25,10.584,9.083,18.959,19.667,18.709h141.708c10.584-0.25,18.959-9.084,18.709-19.666
	C388.667,353.625,379.833,345.25,369.25,345.5z M300,16.667C143.5,16.667,16.667,143.5,16.667,300S143.5,583.333,300,583.333
	S583.333,456.5,583.333,300S456.5,16.667,300,16.667z M477.02,477.02c-22.999,22.999-49.773,41.052-79.579,53.656
	c-30.842,13.044-63.625,19.657-97.44,19.657c-33.815,0-66.599-6.613-97.44-19.657c-29.806-12.604-56.58-30.657-79.58-53.656
	c-22.999-22.999-41.051-49.773-53.657-79.579C56.28,366.599,49.667,333.815,49.667,300c0-33.815,6.614-66.599,19.657-97.44
	c12.605-29.806,30.658-56.58,53.657-79.579s49.773-41.052,79.579-53.657C233.401,56.28,266.185,49.667,300,49.667
	c33.815,0,66.599,6.614,97.44,19.657c29.806,12.605,56.58,30.658,79.579,53.657s41.052,49.773,53.656,79.579
	c13.044,30.842,19.657,63.625,19.657,97.44c0,33.815-6.613,66.599-19.657,97.44C518.071,427.246,500.019,454.021,477.02,477.02z"/>
</svg>
