<?xml version="1.0" encoding="utf-8"?>
<!-- Generator: Adobe Illustrator 16.0.0, SVG Export Plug-In . SVG Version: 6.00 Build 0)  -->
<!DOCTYPE svg PUBLIC "-//W3C//DTD SVG 1.1//EN" "http://www.w3.org/Graphics/SVG/1.1/DTD/svg11.dtd">
<svg version="1.1" xmlns="http://www.w3.org/2000/svg" xmlns:xlink="http://www.w3.org/1999/xlink" x="0px" y="0px" width="576px"
	 height="216px" viewBox="0 0 576 216" enable-background="new 0 0 576 216" xml:space="preserve">
<g id="Layer_1">
	<circle fill="#FFFFFF" cx="102.09" cy="108" r="71.919"/>
	<path fill="#71459B" d="M138.948,104.477l-29.094-4.17l-3.601-29.091l-3.566-28.82l-4.119,28.746l-4.17,29.093l-29.091,3.601
		l-28.817,3.567l28.744,4.12l29.093,4.17l3.601,29.09l3.567,28.82l4.119-28.746l4.17-29.093l29.091-3.603l28.817-3.565
		L138.948,104.477z M102.405,71.692l3.932,31.771c-1.113-1.041-2.602-1.684-4.242-1.684c-1.641,0-3.131,0.644-4.243,1.686
		L102.405,71.692z M104.438,108c0,1.291-1.051,2.342-2.342,2.342c-1.291,0-2.341-1.051-2.341-2.342s1.051-2.342,2.341-2.342
		C103.387,105.658,104.438,106.709,104.438,108z M65.783,107.685l31.785-3.935c-1.045,1.113-1.691,2.606-1.691,4.25
		c0,1.639,0.642,3.126,1.681,4.238L65.783,107.685z M101.775,144.307l-3.934-31.783c1.114,1.048,2.608,1.695,4.254,1.695
		c1.635,0,3.12-0.639,4.231-1.673L101.775,144.307z M106.626,112.248c1.045-1.113,1.69-2.604,1.69-4.248
		c0-1.638-0.641-3.125-1.68-4.237l31.762,4.553L106.626,112.248z"/>
	<g>
		<g>
			<path fill="#FFFFFF" d="M215.913,122.865c-6.122,0-10.151-1.749-14.411-6.12l2.396-2.355c3.726,3.686,6.691,5.093,11.977,5.093
				c3.497,0,10.114-1.028,10.114-5.702c0-3.422-3.537-4.792-6.427-4.829l-6.007-0.077c-3.575-0.037-5.324-0.455-7.034-1.559
				c-1.862-1.216-2.927-3.421-2.927-5.625c0-6.274,7.071-8.556,12.242-8.556c4.638,0,8.325,1.37,12.013,4.182l-2.092,2.622
				c-3.27-2.317-6.004-3.42-10.035-3.42c-3.04,0-8.744,1.216-8.744,5.172c0,1.178,0.646,2.355,1.672,2.926
				c1.294,0.685,2.167,0.876,5.78,0.911l4.219,0.039c1.978,0,3.991,0.191,5.818,0.95c2.928,1.216,4.903,4.223,4.903,7.377
				C229.371,120.776,221.462,122.865,215.913,122.865z"/>
			<path fill="#FFFFFF" d="M267.309,108.342c-1.748,1.408-3.953,1.711-6.12,1.711h-12.393v12.091h-3.347v-28.4h15.739
				c5.323,0,8.974,2.47,8.974,8.098C270.162,104.237,269.21,106.821,267.309,108.342z M264.8,97.697
				c-0.646-0.381-1.56-0.609-3.611-0.609h-12.393v9.582h12.393c3.384,0,5.625-1.217,5.625-4.867
				C266.813,100.207,266.208,98.535,264.8,97.697z"/>
			<path fill="#FFFFFF" d="M307.872,122.144l-4.64-9.771h-13.685l-4.488,9.771h-3.724l13.533-28.4h3.423l13.304,28.4H307.872z
				 M296.541,97.811l-5.321,11.255h10.53L296.541,97.811z"/>
			<path fill="#FFFFFF" d="M349.234,108.646c-1.408,1.178-2.588,1.444-4.338,1.749l6.617,11.748h-3.839l-6.579-11.748h-11.29v11.748
				h-3.349v-28.4h14.221c4.599,0,5.893,0.151,8.06,1.561c2.205,1.442,3.458,4.218,3.458,6.804
				C352.195,104.578,351.134,107.049,349.234,108.646z M342.653,97.088h-12.848v9.961h12.24c2.549,0,3.728-0.074,4.866-0.873
				c1.256-0.875,1.939-2.51,1.939-4.029C348.852,98.418,345.963,97.088,342.653,97.088z"/>
			<path fill="#FFFFFF" d="M389.909,122.144l-10.037-15.93L372,113.703v8.44h-3.382v-28.4H372v15.511l15.778-15.511h4.451
				l-9.964,9.96l11.635,18.44H389.909z"/>
			<path fill="#FFFFFF" d="M430.279,108.342c-1.748,1.408-3.953,1.711-6.122,1.711h-12.394v12.091h-3.346v-28.4h15.739
				c5.325,0,8.976,2.47,8.976,8.098C433.133,104.237,432.179,106.821,430.279,108.342z M427.771,97.697
				c-0.646-0.381-1.559-0.609-3.613-0.609h-12.394v9.582h12.394c3.384,0,5.627-1.217,5.627-4.867
				C429.784,100.207,429.177,98.535,427.771,97.697z"/>
			<path fill="#FFFFFF" d="M470.841,122.144l-4.638-9.771h-13.685l-4.488,9.771h-3.727l13.536-28.4h3.421l13.306,28.4H470.841z
				 M459.512,97.811l-5.321,11.255h10.53L459.512,97.811z"/>
			<path fill="#FFFFFF" d="M499.846,97.088v25.056H496.5V97.088h-10.379v-3.345h24.143v3.345H499.846z"/>
			<path fill="#FFFFFF" d="M548.316,122.144v-13.155h-18.25v13.155h-3.384v-28.4h3.384v11.9h18.25v-11.9h3.384v28.4H548.316z"/>
		</g>
	</g>
</g>
<g id="Layer_2" display="none">
	<rect x="-41.07" y="-415.376" display="inline" fill="#71459B" width="142.493" height="142.493"/>
	<rect x="158.419" y="-415.376" display="inline" fill="#88CCA3" width="142.493" height="142.493"/>
	<rect x="356.409" y="-415.376" display="inline" width="142.492" height="142.493"/>
</g>
</svg>
