<?xml version="1.0" encoding="utf-8"?>
<!-- Generator: Adobe Illustrator 23.0.3, SVG Export Plug-In . SVG Version: 6.00 Build 0)  -->
<svg version="1.1" id="Layer_1" xmlns="http://www.w3.org/2000/svg" xmlns:xlink="http://www.w3.org/1999/xlink" x="0px" y="0px"
	 viewBox="0 0 144 144" style="enable-background:new 0 0 144 144;" xml:space="preserve">
<style type="text/css">
	.st0{fill:#71459B;}
</style>
<path id="undo-alt-solid" class="st0" d="M71.88,7C55.19,7.01,39.15,13.46,27.1,25l-9.36-9.36c-2.46-2.46-6.44-2.45-8.9,0.01
	C7.66,16.83,7,18.42,7,20.09v35.13c0,3.47,2.82,6.29,6.29,6.29h35.13c3.47,0,6.29-2.81,6.29-6.29c0-1.67-0.66-3.28-1.85-4.46
	L41.93,39.83c17.77-16.6,45.63-15.66,62.23,2.1s15.66,45.63-2.1,62.23C85.54,119.6,60.02,120.02,43,105.13
	c-1.24-1.09-3.12-1.03-4.29,0.14l-10.4,10.4c-1.23,1.23-1.23,3.23,0.01,4.46c0.04,0.04,0.08,0.08,0.12,0.11
	c26.64,24.06,67.74,21.97,91.8-4.67s21.97-67.74-4.67-91.8C103.59,12.95,88.02,6.97,71.88,7z"/>
</svg>
