<?xml version="1.0" encoding="utf-8"?>
<!-- Generator: Adobe Illustrator 16.0.0, SVG Export Plug-In . SVG Version: 6.00 Build 0)  -->
<!DOCTYPE svg PUBLIC "-//W3C//DTD SVG 1.1//EN" "http://www.w3.org/Graphics/SVG/1.1/DTD/svg11.dtd">
<svg version="1.1" id="Layer_1" xmlns="http://www.w3.org/2000/svg" xmlns:xlink="http://www.w3.org/1999/xlink" x="0px" y="0px"
	 width="600px" height="600px" viewBox="0 0 600 600" enable-background="new 0 0 600 600" xml:space="preserve">
<path fill="#FFFFFF" d="M208,279.625l56.083,14.458c3.625,0.917,7.333-1.208,8.417-4.792l15.5-55.917
	c4.167-15.083-4.667-30.708-19.708-34.875c-1.083-0.292-2.208-0.542-3.292-0.708c-15.083-1.917-29.25,7.625-33.167,22.333
	l-1.583,5.667l-5.667-1.5c-14.708-4-30.083,3.542-35.917,17.583c-5.667,14.583,1.542,31,16.125,36.708
	C205.833,279,206.917,279.333,208,279.625z M391.25,332.834c-1.625-0.25-3.333-0.125-4.958,0.375
	c-27.5,7.541-55.959,11.041-84.458,10.457c-28.5,0.584-56.959-2.957-84.459-10.457c-5.792-1.834-11.958,1.375-13.792,7.166
	c-0.5,1.625-0.625,3.375-0.375,5.084c6.333,37.75,57,63.958,98.583,63.958c41.584,0,92.251-26.333,98.626-64.001
	C401.375,339.416,397.25,333.75,391.25,332.834z M415.083,241.875c-5.875-14.042-21.208-21.542-35.916-17.583l-5.667,1.5
	l-1.583-5.667c-3.875-14.708-18.084-24.292-33.167-22.333c-15.458,2.375-26.083,16.792-23.75,32.292
	c0.167,1.125,0.417,2.208,0.708,3.292l15.5,55.917c1,3.625,4.75,5.792,8.417,4.792l56.125-14.542
	c15.167-3.917,24.292-19.333,20.375-34.5C415.833,243.958,415.5,242.917,415.083,241.875z M300,16.667
	C143.5,16.667,16.667,143.5,16.667,300S143.5,583.333,300,583.333S583.333,456.5,583.333,300S456.5,16.667,300,16.667z
	 M477.02,477.02c-22.999,22.999-49.773,41.052-79.579,53.656c-30.842,13.044-63.625,19.657-97.44,19.657
	c-33.815,0-66.599-6.613-97.44-19.657c-29.806-12.604-56.58-30.657-79.58-53.656c-22.999-22.999-41.051-49.773-53.657-79.579
	C56.28,366.599,49.667,333.815,49.667,300c0-33.815,6.614-66.599,19.657-97.44c12.605-29.806,30.658-56.58,53.657-79.579
	s49.773-41.052,79.579-53.657C233.401,56.28,266.185,49.667,300,49.667c33.815,0,66.599,6.614,97.44,19.657
	c29.806,12.605,56.58,30.658,79.579,53.657s41.052,49.773,53.656,79.579c13.044,30.842,19.657,63.625,19.657,97.44
	c0,33.815-6.613,66.599-19.657,97.44C518.071,427.246,500.019,454.021,477.02,477.02z"/>
</svg>
