<?xml version="1.0" encoding="utf-8"?>
<!-- Generator: Adobe Illustrator 23.0.3, SVG Export Plug-In . SVG Version: 6.00 Build 0)  -->
<svg version="1.1" id="Layer_1" xmlns="http://www.w3.org/2000/svg" xmlns:xlink="http://www.w3.org/1999/xlink" x="0px" y="0px"
	 viewBox="0 0 144 144" style="enable-background:new 0 0 144 144;" xml:space="preserve">
<style type="text/css">
	.st0{fill:#4E1D7C;}
	.st1{fill:#FFFFFF;}
</style>
<g>
	<path id="Rectangle_4-2" class="st0" d="M72,4L72,4c37.56,0,68,30.44,68,68l0,0c0,37.56-30.44,68-68,68l0,0
		c-37.56,0-68-30.44-68-68l0,0C4,34.44,34.44,4,72,4z"/>
	<path id="grin-hearts-regular" class="st1" d="M92.71,79.97c-6.6,1.81-13.43,2.65-20.27,2.51c-6.84,0.14-13.67-0.71-20.27-2.51
		c-1.39-0.44-2.87,0.33-3.31,1.72c-0.12,0.39-0.15,0.81-0.09,1.22c1.52,9.06,13.68,15.35,23.66,15.35S94.57,91.94,96.1,82.9
		c0.23-1.44-0.76-2.8-2.2-3.02C93.51,79.82,93.1,79.85,92.71,79.97L92.71,79.97z M63.38,70.58c0.87,0.22,1.76-0.29,2.02-1.15
		l3.72-13.42c1-3.62-1.12-7.37-4.73-8.37c-0.26-0.07-0.53-0.13-0.79-0.17c-3.62-0.46-7.02,1.83-7.96,5.36l-0.38,1.36l-1.36-0.36
		c-3.53-0.96-7.22,0.85-8.62,4.22c-1.36,3.5,0.37,7.44,3.87,8.81c0.25,0.1,0.51,0.18,0.77,0.25L63.38,70.58L63.38,70.58z
		 M99.62,58.05c-1.41-3.37-5.09-5.17-8.62-4.22l-1.36,0.36l-0.38-1.36c-0.93-3.53-4.34-5.83-7.96-5.36
		c-3.71,0.57-6.26,4.03-5.7,7.75c0.04,0.27,0.1,0.53,0.17,0.79l3.72,13.42c0.24,0.87,1.14,1.39,2.02,1.15l13.47-3.49
		c3.64-0.94,5.83-4.64,4.89-8.28C99.8,58.55,99.72,58.3,99.62,58.05L99.62,58.05z"/>
</g>
</svg>
